<svg width="85" height="21" viewBox="0 0 85 21" fill="none" xmlns="http://www.w3.org/2000/svg">
<g clip-path="url(#clip0_49_18)">
<path d="M35.4 20.1V6.59999H35.3L29.9 20.1H27.8L22.4 6.59999H22.3V20.1H19.8V1.79999H23L28.8 16.4H28.9L34.7 1.79999H38V20.1H35.4ZM52.1 20.1H49.5V17.8H49.4C48.7 19.4 47.3 20.3 45.3 20.3C42.4 20.3 40.7 18.4 40.7 15.3V6.69999H43.4V14.8C43.4 16.8 44.4 17.9 46.2 17.9C48.2 17.9 49.3 16.5 49.3 14.4V6.69999H52L52.1 20.1ZM59.5 6.49999C62.6 6.49999 64.5 8.19999 64.6 10.7H62.1C61.9 9.39999 61 8.59999 59.5 8.59999C58 8.59999 57 9.29999 57 10.4C57 11.2 57.6 11.8 59 12.1L61.1 12.6C63.8 13.2 64.8 14.3 64.8 16.2C64.8 18.6 62.6 20.3 59.5 20.3C56.2 20.3 54.2 18.7 54 16.1H56.7C56.9 17.5 57.9 18.2 59.5 18.2C61.1 18.2 62.1 17.5 62.1 16.4C62.1 15.5 61.6 15 60.2 14.7L58.1 14.2C55.6 13.6 54.4 12.4 54.4 10.4C54.4 8.09999 56.4 6.49999 59.5 6.49999ZM66.8 3.19999C66.8 2.29999 67.5 1.59999 68.4 1.59999C69.3 1.59999 70 2.29999 70 3.19999C70 4.09999 69.3 4.79999 68.4 4.79999C67.5 4.79999 66.8 4.09999 66.8 3.19999ZM67 6.69999H69.7V20.1H67V6.69999ZM81.1 11.3C80.8 9.89999 79.8 8.69999 78 8.69999C75.9 8.69999 74.5 10.5 74.5 13.3C74.5 16.2 75.9 17.9 78 17.9C79.7 17.9 80.7 17 81.1 15.4H83.7C83.4 18.2 81.2 20.2 78 20.2C74.2 20.2 71.8 17.6 71.8 13.3C71.8 9.09999 74.2 6.39999 78 6.39999C81.4 6.39999 83.4 8.59999 83.7 11.2L81.1 11.3ZM11.5 3.59999C10.8 4.39999 9.69996 5.09999 8.59996 4.99999C8.39996 3.79999 8.99996 2.59999 9.59996 1.89999C10.3 0.999994 11.5 0.399994 12.5 0.399994C12.6 1.49999 12.2 2.69999 11.5 3.59999ZM12.5 5.19999C13.1 5.19999 14.9 5.39999 16.1 7.19999C16 7.29999 14 8.49999 14 11C14 14 16.6 15 16.6 15C16.6 15.1 16.2 16.4 15.3 17.8C14.5 19 13.6 20.2 12.3 20.2C11 20.2 10.6 19.4 9.09996 19.4C7.59996 19.4 7.09996 20.2 5.89996 20.2C4.59996 20.2 3.59996 18.9 2.79996 17.7C1.09996 15.2 -0.200043 10.7 1.59996 7.69999C2.39996 6.19999 3.99996 5.19999 5.59996 5.19999C6.89996 5.19999 8.09996 6.09999 8.79996 6.09999C9.49996 6.09999 10.9 5.09999 12.5 5.19999Z" fill="white"/>
</g>
<defs>
<clipPath id="clip0_49_18">
<rect width="84.3" height="20.7" fill="white"/>
</clipPath>
</defs>
</svg>
