<svg width="168" height="208" viewBox="0 0 168 208" fill="none" xmlns="http://www.w3.org/2000/svg">
<g clip-path="url(#clip0_52_40)">
<path d="M8.09078 116.695C8.43637 116.695 8.72892 116.411 8.77861 116.01L10.6573 101.12L8.78419 85.8906C8.72836 85.4903 8.43637 85.2039 8.09078 85.2039C7.73626 85.2039 7.43422 85.4965 7.38732 85.8906L5.74536 101.12L7.38732 116.005C7.43422 116.405 7.73626 116.695 8.09078 116.695Z" fill="white"/>
<path d="M1.89655 111.031C2.23599 111.031 2.51123 110.767 2.56092 110.373L4.01697 101.119L2.56092 91.693C2.51068 91.3106 2.23599 91.0342 1.89655 91.0342C1.54202 91.0342 1.26734 91.3106 1.21709 91.6986L0 101.12L1.21709 110.37C1.26734 110.762 1.54202 111.031 1.89655 111.031Z" fill="white"/>
<path d="M15.4995 83.0561C15.4548 82.5721 15.1003 82.2187 14.6604 82.2187C14.2238 82.2187 13.8687 82.5721 13.8279 83.0561L12.2585 101.12L13.8279 118.524C13.8687 119.006 14.2238 119.355 14.6604 119.355C15.1003 119.355 15.4548 119.006 15.4995 118.524L17.2749 101.12L15.4995 83.0561Z" fill="white"/>
<path d="M21.3004 120.056C21.8151 120.056 22.2316 119.632 22.2819 119.078L23.9596 101.126L22.2819 82.5576C22.2316 81.9998 21.8151 81.5811 21.3004 81.5811C20.7784 81.5811 20.3557 82.0004 20.32 82.5604L18.8372 101.126L20.32 119.078C20.3557 119.633 20.7784 120.056 21.3004 120.056Z" fill="white"/>
<path d="M27.9858 120.347C28.5854 120.347 29.0667 119.867 29.1164 119.224L29.1108 119.229L30.6908 101.126L29.1108 83.898C29.0661 83.266 28.5854 82.7787 27.9853 82.7787C27.3767 82.7787 26.8982 83.266 26.862 83.9031L25.4651 101.126L26.862 119.225C26.8988 119.867 27.3773 120.347 27.9858 120.347Z" fill="white"/>
<path d="M37.4798 101.13L35.9975 73.119C35.9562 72.4088 35.4029 71.8427 34.7241 71.8427C34.0502 71.8427 33.4986 72.4082 33.4573 73.119L32.1453 101.13L33.4573 119.229C33.4986 119.942 34.0507 120.501 34.7241 120.501C35.4035 120.501 35.9562 119.942 35.9975 119.229V119.234L37.4798 101.13Z" fill="white"/>
<path d="M41.5297 120.53C42.2772 120.53 42.8975 119.91 42.9327 119.118V119.13L44.3184 101.134L42.9327 66.7119C42.8975 65.9202 42.2772 65.3 41.5297 65.3C40.7648 65.3 40.1501 65.9202 40.1088 66.7119L38.8889 101.134L40.1144 119.124C40.1501 119.91 40.7648 120.53 41.5297 120.53Z" fill="white"/>
<path d="M48.3739 62.2823C47.532 62.2823 46.8525 62.9735 46.8179 63.845L45.6829 101.14L46.8179 118.941C46.8531 119.808 47.532 120.495 48.3739 120.495C49.2136 120.495 49.898 119.813 49.9276 118.938V118.947L51.2156 101.14L49.9276 63.845C49.898 62.9679 49.213 62.2823 48.3739 62.2823Z" fill="white"/>
<path d="M55.2773 120.53C56.2018 120.53 56.9382 119.784 56.9728 118.824V118.835L58.1637 101.141L56.9728 62.5928C56.9377 61.6358 56.2018 60.8866 55.2773 60.8866C54.3472 60.8866 53.5996 61.6358 53.5851 62.5928L52.5154 101.141L53.5851 118.835C53.5996 119.784 54.3472 120.53 55.2773 120.53Z" fill="white"/>
<path d="M62.2376 120.512C63.2352 120.512 64.0448 119.696 64.0749 118.66V118.676L65.1709 101.143L64.0749 63.5759C64.0448 62.5408 63.2352 61.7274 62.2376 61.7274C61.2326 61.7274 60.4231 62.5403 60.3935 63.5759L59.4304 101.143L60.3996 118.668C60.4231 119.696 61.2326 120.512 62.2376 120.512Z" fill="white"/>
<path d="M72.2211 101.143L71.229 64.9454C71.205 63.8288 70.3307 62.9518 69.2465 62.9518C68.1595 62.9518 67.2846 63.8288 67.2618 64.9527L66.3718 101.143L67.2618 118.561C67.2846 119.669 68.1589 120.547 69.2465 120.547C70.3302 120.547 71.205 119.669 71.229 118.545V118.561L72.2211 101.143Z" fill="white"/>
<path d="M76.3095 120.579C77.4618 120.579 78.416 119.62 78.4338 118.442V118.451L79.3344 101.153L78.4338 58.0783C78.4165 56.8953 77.4624 55.9384 76.3095 55.9384C75.1577 55.9384 74.2064 56.8998 74.1829 58.0845L73.3823 101.136L74.1829 118.452C74.2064 119.62 75.1577 120.579 76.3095 120.579Z" fill="white"/>
<path d="M83.3492 51.8862C82.1048 51.8862 81.0954 52.9185 81.0747 54.1769L80.144 101.158L81.0803 118.201C81.0954 119.443 82.1053 120.472 83.3492 120.472C84.5747 120.472 85.6031 119.443 85.6087 118.18V118.201L86.6248 101.158L85.6087 54.1769C85.6031 52.9141 84.5747 51.8862 83.3492 51.8862Z" fill="white"/>
<path d="M89.7858 120.595C89.836 120.6 146.522 120.626 146.886 120.626C158.267 120.626 167.489 111.29 167.489 99.77C167.489 88.2556 158.266 78.918 146.886 78.918C144.061 78.918 141.37 79.4953 138.916 80.541C137.285 61.7425 121.712 47 102.715 47C98.071 47 93.5426 47.9279 89.5429 49.495C87.9864 50.1036 87.5699 50.7311 87.5576 51.9471V118.127C87.5755 119.406 88.5503 120.468 89.7858 120.595Z" fill="white"/>
</g>
<path d="M34.3213 192.264C34.2645 191.691 34.0207 191.246 33.5898 190.929C33.1589 190.612 32.5742 190.453 31.8355 190.453C31.3336 190.453 30.9099 190.524 30.5642 190.666C30.2186 190.803 29.9534 190.995 29.7688 191.241C29.5889 191.488 29.4989 191.767 29.4989 192.079C29.4894 192.34 29.5439 192.567 29.6622 192.761C29.7853 192.955 29.9534 193.124 30.1665 193.266C30.3796 193.403 30.6258 193.524 30.9051 193.628C31.1845 193.727 31.4828 193.812 31.8 193.883L33.1068 194.196C33.7413 194.338 34.3237 194.527 34.854 194.764C35.3843 195.001 35.8436 195.292 36.2318 195.638C36.6201 195.983 36.9208 196.391 37.1338 196.859C37.3516 197.328 37.4629 197.865 37.4676 198.472C37.4629 199.362 37.2356 200.133 36.7858 200.787C36.3407 201.436 35.6968 201.94 34.854 202.3C34.0159 202.655 33.005 202.832 31.8213 202.832C30.6471 202.832 29.6244 202.652 28.7532 202.293C27.8867 201.933 27.2096 201.4 26.7219 200.695C26.2389 199.984 25.9856 199.106 25.962 198.06H28.9378C28.971 198.547 29.1106 198.954 29.3568 199.281C29.6078 199.603 29.9416 199.847 30.3583 200.013C30.7797 200.174 31.2555 200.254 31.7858 200.254C32.3067 200.254 32.7588 200.178 33.1424 200.027C33.5306 199.875 33.8313 199.665 34.0443 199.395C34.2574 199.125 34.3639 198.815 34.3639 198.464C34.3639 198.138 34.2669 197.863 34.0728 197.641C33.8834 197.418 33.604 197.229 33.2347 197.072C32.8701 196.916 32.4227 196.774 31.8924 196.646L30.3085 196.249C29.0822 195.95 28.1139 195.484 27.4037 194.849C26.6935 194.215 26.3407 193.36 26.3455 192.285C26.3407 191.405 26.5751 190.635 27.0486 189.977C27.5268 189.319 28.1826 188.805 29.0159 188.436C29.8493 188.067 30.7962 187.882 31.8568 187.882C32.9364 187.882 33.8786 188.067 34.6835 188.436C35.4932 188.805 36.1229 189.319 36.5728 189.977C37.0226 190.635 37.2546 191.398 37.2688 192.264H34.3213ZM44.4083 202.839C43.3051 202.839 42.351 202.605 41.5461 202.136C40.7459 201.663 40.128 201.005 39.6924 200.162C39.2568 199.314 39.039 198.332 39.039 197.214C39.039 196.088 39.2568 195.103 39.6924 194.26C40.128 193.412 40.7459 192.754 41.5461 192.285C42.351 191.812 43.3051 191.575 44.4083 191.575C45.5116 191.575 46.4633 191.812 47.2635 192.285C48.0684 192.754 48.6886 193.412 49.1242 194.26C49.5599 195.103 49.7777 196.088 49.7777 197.214C49.7777 198.332 49.5599 199.314 49.1242 200.162C48.6886 201.005 48.0684 201.663 47.2635 202.136C46.4633 202.605 45.5116 202.839 44.4083 202.839ZM44.4225 200.496C44.9244 200.496 45.3435 200.354 45.6796 200.07C46.0158 199.781 46.2691 199.388 46.4396 198.891C46.6148 198.393 46.7024 197.828 46.7024 197.193C46.7024 196.559 46.6148 195.993 46.4396 195.496C46.2691 194.999 46.0158 194.606 45.6796 194.317C45.3435 194.028 44.9244 193.883 44.4225 193.883C43.9159 193.883 43.4898 194.028 43.1441 194.317C42.8032 194.606 42.5452 194.999 42.37 195.496C42.1995 195.993 42.1143 196.559 42.1143 197.193C42.1143 197.828 42.1995 198.393 42.37 198.891C42.5452 199.388 42.8032 199.781 43.1441 200.07C43.4898 200.354 43.9159 200.496 44.4225 200.496ZM58.7407 197.981V191.717H61.7663V202.626H58.8615V200.645H58.7478C58.5016 201.284 58.092 201.798 57.5191 202.186C56.9509 202.574 56.2573 202.768 55.4382 202.768C54.709 202.768 54.0674 202.603 53.5135 202.271C52.9595 201.94 52.5262 201.469 52.2137 200.858C51.906 200.247 51.7497 199.516 51.745 198.663V191.717H54.7706V198.124C54.7753 198.767 54.9481 199.276 55.289 199.65C55.6299 200.025 56.0868 200.212 56.6598 200.212C57.0243 200.212 57.3652 200.129 57.6825 199.963C57.9997 199.793 58.2554 199.542 58.4495 199.21C58.6484 198.879 58.7455 198.469 58.7407 197.981ZM67.212 196.32V202.626H64.1864V191.717H67.0699V193.642H67.1978C67.4392 193.007 67.8441 192.506 68.4122 192.136C68.9804 191.762 69.6693 191.575 70.479 191.575C71.2366 191.575 71.8971 191.741 72.4605 192.072C73.024 192.404 73.462 192.877 73.7745 193.493C74.087 194.104 74.2432 194.833 74.2432 195.68V202.626H71.2176V196.22C71.2224 195.552 71.0519 195.032 70.7063 194.658C70.3606 194.279 69.8848 194.089 69.2787 194.089C68.8715 194.089 68.5117 194.177 68.1992 194.352C67.8914 194.527 67.6499 194.783 67.4747 195.119C67.3043 195.451 67.2167 195.851 67.212 196.32ZM80.6477 202.804C79.8191 202.804 79.0686 202.591 78.3963 202.165C77.7286 201.734 77.1983 201.102 76.8054 200.268C76.4171 199.43 76.223 198.403 76.223 197.186C76.223 195.936 76.4242 194.897 76.8267 194.068C77.2291 193.235 77.7642 192.612 78.4318 192.2C79.1041 191.784 79.8404 191.575 80.6406 191.575C81.2514 191.575 81.7604 191.679 82.1676 191.888C82.5795 192.091 82.9109 192.347 83.1619 192.655C83.4176 192.958 83.6117 193.256 83.7443 193.55H83.8366V188.081H86.8551V202.626H83.8721V200.879H83.7443C83.6022 201.182 83.401 201.483 83.1406 201.781C82.8849 202.075 82.5511 202.319 82.1392 202.513C81.732 202.707 81.2348 202.804 80.6477 202.804ZM81.6065 200.396C82.0942 200.396 82.5061 200.264 82.8423 199.999C83.1832 199.729 83.4436 199.352 83.6235 198.869C83.8082 198.386 83.9005 197.82 83.9005 197.172C83.9005 196.523 83.8106 195.96 83.6306 195.481C83.4507 195.003 83.1903 194.634 82.8494 194.374C82.5085 194.113 82.0942 193.983 81.6065 193.983C81.1093 193.983 80.6903 194.118 80.3494 194.388C80.0085 194.658 79.7504 195.032 79.5752 195.51C79.4001 195.988 79.3125 196.542 79.3125 197.172C79.3125 197.806 79.4001 198.367 79.5752 198.855C79.7552 199.338 80.0132 199.717 80.3494 199.991C80.6903 200.261 81.1093 200.396 81.6065 200.396ZM94.2716 202.839C93.1542 202.839 92.193 202.603 91.3881 202.129C90.5879 201.651 89.9724 200.988 89.5415 200.141C89.1154 199.293 88.9023 198.318 88.9023 197.214C88.9023 196.097 89.1177 195.117 89.5486 194.274C89.9842 193.427 90.6021 192.766 91.4023 192.293C92.2025 191.814 93.1542 191.575 94.2574 191.575C95.2091 191.575 96.0425 191.748 96.7574 192.094C97.4724 192.439 98.0382 192.925 98.4549 193.55C98.8715 194.175 99.1012 194.909 99.1438 195.751H96.2887C96.2082 195.207 95.9951 194.769 95.6495 194.437C95.3085 194.101 94.8611 193.933 94.3071 193.933C93.8384 193.933 93.4288 194.061 93.0784 194.317C92.7328 194.568 92.4629 194.935 92.2688 195.418C92.0746 195.9 91.9776 196.485 91.9776 197.172C91.9776 197.868 92.0723 198.46 92.2617 198.947C92.4558 199.435 92.7281 199.807 93.0784 200.062C93.4288 200.318 93.8384 200.446 94.3071 200.446C94.6528 200.446 94.9629 200.375 95.2375 200.233C95.5169 200.091 95.7465 199.885 95.9264 199.615C96.1111 199.34 96.2318 199.011 96.2887 198.628H99.1438C99.0964 199.461 98.8692 200.195 98.462 200.829C98.0595 201.459 97.5032 201.952 96.7929 202.307C96.0827 202.662 95.2423 202.839 94.2716 202.839ZM104.106 188.081V202.626H101.081V188.081H104.106ZM111.459 202.839C110.356 202.839 109.402 202.605 108.597 202.136C107.797 201.663 107.179 201.005 106.743 200.162C106.308 199.314 106.09 198.332 106.09 197.214C106.09 196.088 106.308 195.103 106.743 194.26C107.179 193.412 107.797 192.754 108.597 192.285C109.402 191.812 110.356 191.575 111.459 191.575C112.562 191.575 113.514 191.812 114.314 192.285C115.119 192.754 115.739 193.412 116.175 194.26C116.611 195.103 116.828 196.088 116.828 197.214C116.828 198.332 116.611 199.314 116.175 200.162C115.739 201.005 115.119 201.663 114.314 202.136C113.514 202.605 112.562 202.839 111.459 202.839ZM111.473 200.496C111.975 200.496 112.394 200.354 112.73 200.07C113.067 199.781 113.32 199.388 113.49 198.891C113.666 198.393 113.753 197.828 113.753 197.193C113.753 196.559 113.666 195.993 113.49 195.496C113.32 194.999 113.067 194.606 112.73 194.317C112.394 194.028 111.975 193.883 111.473 193.883C110.967 193.883 110.541 194.028 110.195 194.317C109.854 194.606 109.596 194.999 109.421 195.496C109.25 195.993 109.165 196.559 109.165 197.193C109.165 197.828 109.25 198.393 109.421 198.891C109.596 199.388 109.854 199.781 110.195 200.07C110.541 200.354 110.967 200.496 111.473 200.496ZM125.792 197.981V191.717H128.817V202.626H125.912V200.645H125.799C125.552 201.284 125.143 201.798 124.57 202.186C124.002 202.574 123.308 202.768 122.489 202.768C121.76 202.768 121.118 202.603 120.564 202.271C120.01 201.94 119.577 201.469 119.265 200.858C118.957 200.247 118.801 199.516 118.796 198.663V191.717H121.821V198.124C121.826 198.767 121.999 199.276 122.34 199.65C122.681 200.025 123.138 200.212 123.711 200.212C124.075 200.212 124.416 200.129 124.733 199.963C125.051 199.793 125.306 199.542 125.5 199.21C125.699 198.879 125.796 198.469 125.792 197.981ZM135.257 202.804C134.428 202.804 133.678 202.591 133.006 202.165C132.338 201.734 131.808 201.102 131.415 200.268C131.026 199.43 130.832 198.403 130.832 197.186C130.832 195.936 131.034 194.897 131.436 194.068C131.838 193.235 132.374 192.612 133.041 192.2C133.713 191.784 134.45 191.575 135.25 191.575C135.861 191.575 136.37 191.679 136.777 191.888C137.189 192.091 137.52 192.347 137.771 192.655C138.027 192.958 138.221 193.256 138.354 193.55H138.446V188.081H141.464V202.626H138.481V200.879H138.354C138.212 201.182 138.01 201.483 137.75 201.781C137.494 202.075 137.16 202.319 136.749 202.513C136.341 202.707 135.844 202.804 135.257 202.804ZM136.216 200.396C136.704 200.396 137.115 200.264 137.452 199.999C137.793 199.729 138.053 199.352 138.233 198.869C138.418 198.386 138.51 197.82 138.51 197.172C138.51 196.523 138.42 195.96 138.24 195.481C138.06 195.003 137.8 194.634 137.459 194.374C137.118 194.113 136.704 193.983 136.216 193.983C135.719 193.983 135.3 194.118 134.959 194.388C134.618 194.658 134.36 195.032 134.185 195.51C134.009 195.988 133.922 196.542 133.922 197.172C133.922 197.806 134.009 198.367 134.185 198.855C134.365 199.338 134.623 199.717 134.959 199.991C135.3 200.261 135.719 200.396 136.216 200.396Z" fill="white"/>
<defs>
<clipPath id="clip0_52_40">
<rect width="167.489" height="167.626" fill="white"/>
</clipPath>
</defs>
</svg>
