<svg width="168" height="208" viewBox="0 0 168 208" fill="none" xmlns="http://www.w3.org/2000/svg">
<g clip-path="url(#clip0_37_13)">
<path d="M83.743 0C37.494 0 0 37.493 0 83.742C0 129.993 37.494 167.483 83.743 167.483C129.997 167.483 167.487 129.993 167.487 83.742C167.487 37.496 129.997 0.00399998 83.742 0.00399998L83.743 0ZM122.147 120.78C120.647 123.24 117.427 124.02 114.967 122.51C95.305 110.5 70.553 107.78 41.403 114.44C38.594 115.08 35.794 113.32 35.154 110.51C34.511 107.7 36.264 104.9 39.08 104.26C70.98 96.969 98.343 100.11 120.417 113.6C122.877 115.11 123.657 118.32 122.147 120.78ZM132.397 97.975C130.507 101.05 126.487 102.02 123.417 100.13C100.907 86.291 66.594 82.284 39.969 90.366C36.516 91.409 32.869 89.463 31.821 86.016C30.781 82.563 32.728 78.923 36.175 77.873C66.588 68.645 104.397 73.115 130.247 89C133.317 90.89 134.287 94.909 132.397 97.975ZM133.277 74.231C106.287 58.2 61.757 56.726 35.988 64.547C31.85 65.802 27.474 63.466 26.22 59.328C24.966 55.188 27.3 50.815 31.441 49.557C61.022 40.577 110.197 42.312 141.271 60.759C145.001 62.968 146.221 67.775 144.011 71.492C141.811 75.214 136.991 76.441 133.281 74.231H133.277Z" fill="white"/>
<path d="M57.7146 192.121C57.6578 191.548 57.414 191.103 56.9831 190.786C56.5522 190.468 55.9675 190.31 55.2288 190.31C54.727 190.31 54.3032 190.381 53.9575 190.523C53.6119 190.66 53.3467 190.852 53.1621 191.098C52.9822 191.344 52.8922 191.624 52.8922 191.936C52.8827 192.197 52.9372 192.424 53.0556 192.618C53.1787 192.812 53.3467 192.98 53.5598 193.122C53.7729 193.26 54.0191 193.38 54.2985 193.484C54.5778 193.584 54.8761 193.669 55.1933 193.74L56.5002 194.053C57.1346 194.195 57.717 194.384 58.2473 194.621C58.7776 194.858 59.2369 195.149 59.6252 195.494C60.0134 195.84 60.3141 196.247 60.5271 196.716C60.7449 197.185 60.8562 197.722 60.861 198.328C60.8562 199.218 60.6289 199.99 60.1791 200.644C59.7341 201.292 59.0901 201.796 58.2473 202.156C57.4092 202.511 56.3984 202.689 55.2146 202.689C54.0404 202.689 53.0177 202.509 52.1465 202.149C51.28 201.789 50.6029 201.257 50.1152 200.551C49.6323 199.841 49.3789 198.963 49.3553 197.916H52.3311C52.3643 198.404 52.5039 198.811 52.7502 199.138C53.0011 199.46 53.3349 199.704 53.7516 199.869C54.173 200.03 54.6488 200.111 55.1791 200.111C55.7 200.111 56.1521 200.035 56.5357 199.884C56.9239 199.732 57.2246 199.521 57.4377 199.251C57.6507 198.982 57.7573 198.671 57.7573 198.321C57.7573 197.994 57.6602 197.72 57.4661 197.497C57.2767 197.275 56.9973 197.085 56.628 196.929C56.2634 196.773 55.816 196.631 55.2857 196.503L53.7019 196.105C52.4755 195.807 51.5073 195.341 50.797 194.706C50.0868 194.072 49.7341 193.217 49.7388 192.142C49.7341 191.261 49.9684 190.492 50.4419 189.834C50.9201 189.176 51.5759 188.662 52.4092 188.293C53.2426 187.923 54.1895 187.739 55.2502 187.739C56.3297 187.739 57.2719 187.923 58.0769 188.293C58.8865 188.662 59.5163 189.176 59.9661 189.834C60.4159 190.492 60.6479 191.254 60.6621 192.121H57.7146ZM62.8727 206.574V191.574H65.8556V193.406H65.9906C66.1231 193.113 66.3149 192.814 66.5659 192.511C66.8215 192.204 67.153 191.948 67.5602 191.744C67.9721 191.536 68.4835 191.432 69.0943 191.432C69.8897 191.432 70.6236 191.64 71.296 192.057C71.9683 192.469 72.5057 193.091 72.9082 193.925C73.3106 194.753 73.5119 195.793 73.5119 197.043C73.5119 198.26 73.3154 199.287 72.9224 200.125C72.5341 200.958 72.0038 201.591 71.3315 202.021C70.6639 202.448 69.9158 202.661 69.0872 202.661C68.5 202.661 68.0005 202.564 67.5886 202.369C67.1814 202.175 66.8476 201.931 66.5872 201.638C66.3267 201.34 66.1279 201.039 65.9906 200.736H65.8982V206.574H62.8727ZM65.8343 197.028C65.8343 197.677 65.9243 198.243 66.1042 198.726C66.2841 199.209 66.5445 199.585 66.8855 199.855C67.2264 200.12 67.6407 200.253 68.1284 200.253C68.6208 200.253 69.0374 200.118 69.3784 199.848C69.7193 199.573 69.9773 199.195 70.1525 198.712C70.3324 198.224 70.4224 197.663 70.4224 197.028C70.4224 196.399 70.3348 195.845 70.1596 195.367C69.9844 194.888 69.7264 194.514 69.3855 194.244C69.0445 193.975 68.6255 193.84 68.1284 193.84C67.6359 193.84 67.2193 193.97 66.8784 194.23C66.5422 194.491 66.2841 194.86 66.1042 195.338C65.9243 195.816 65.8343 196.38 65.8343 197.028ZM80.4579 202.696C79.3547 202.696 78.4006 202.462 77.5957 201.993C76.7955 201.519 76.1776 200.861 75.742 200.019C75.3064 199.171 75.0886 198.189 75.0886 197.071C75.0886 195.944 75.3064 194.959 75.742 194.117C76.1776 193.269 76.7955 192.611 77.5957 192.142C78.4006 191.669 79.3547 191.432 80.4579 191.432C81.5611 191.432 82.5128 191.669 83.313 192.142C84.1179 192.611 84.7382 193.269 85.1738 194.117C85.6094 194.959 85.8272 195.944 85.8272 197.071C85.8272 198.189 85.6094 199.171 85.1738 200.019C84.7382 200.861 84.1179 201.519 83.313 201.993C82.5128 202.462 81.5611 202.696 80.4579 202.696ZM80.4721 200.352C80.974 200.352 81.393 200.21 81.7292 199.926C82.0654 199.637 82.3187 199.244 82.4891 198.747C82.6643 198.25 82.7519 197.684 82.7519 197.05C82.7519 196.415 82.6643 195.85 82.4891 195.352C82.3187 194.855 82.0654 194.462 81.7292 194.173C81.393 193.885 80.974 193.74 80.4721 193.74C79.9655 193.74 79.5393 193.885 79.1937 194.173C78.8528 194.462 78.5947 194.855 78.4195 195.352C78.2491 195.85 78.1639 196.415 78.1639 197.05C78.1639 197.684 78.2491 198.25 78.4195 198.747C78.5947 199.244 78.8528 199.637 79.1937 199.926C79.5393 200.21 79.9655 200.352 80.4721 200.352ZM93.5971 191.574V193.847H87.0275V191.574H93.5971ZM88.519 188.96H91.5445V199.131C91.5445 199.41 91.5872 199.628 91.6724 199.784C91.7576 199.936 91.876 200.042 92.0275 200.104C92.1837 200.165 92.3637 200.196 92.5673 200.196C92.7093 200.196 92.8514 200.184 92.9934 200.161C93.1355 200.132 93.2444 200.111 93.3201 200.097L93.796 202.348C93.6445 202.395 93.4314 202.45 93.1568 202.511C92.8821 202.578 92.5483 202.618 92.1553 202.632C91.4262 202.661 90.787 202.564 90.2377 202.341C89.6932 202.118 89.2694 201.773 88.9664 201.304C88.6634 200.835 88.5142 200.243 88.519 199.528V188.96ZM95.568 202.483V191.574H98.5936V202.483H95.568ZM97.0879 190.168C96.6381 190.168 96.2522 190.019 95.9302 189.72C95.613 189.417 95.4543 189.055 95.4543 188.634C95.4543 188.217 95.613 187.859 95.9302 187.561C96.2522 187.258 96.6381 187.107 97.0879 187.107C97.5377 187.107 97.9212 187.258 98.2384 187.561C98.5604 187.859 98.7214 188.217 98.7214 188.634C98.7214 189.055 98.5604 189.417 98.2384 189.72C97.9212 190.019 97.5377 190.168 97.0879 190.168ZM106.884 191.574V193.847H100.151V191.574H106.884ZM101.692 202.483V190.786C101.692 189.995 101.846 189.339 102.154 188.818C102.466 188.297 102.892 187.907 103.432 187.646C103.972 187.386 104.585 187.256 105.271 187.256C105.735 187.256 106.159 187.291 106.543 187.362C106.931 187.433 107.22 187.497 107.409 187.554L106.869 189.827C106.751 189.789 106.604 189.753 106.429 189.72C106.259 189.687 106.083 189.671 105.904 189.671C105.458 189.671 105.148 189.775 104.973 189.983C104.798 190.187 104.71 190.473 104.71 190.842V202.483H101.692ZM110.6 206.574C110.216 206.574 109.857 206.543 109.52 206.482C109.189 206.425 108.914 206.351 108.697 206.261L109.378 204.003C109.733 204.112 110.053 204.171 110.337 204.18C110.626 204.19 110.875 204.124 111.083 203.982C111.296 203.84 111.469 203.598 111.601 203.257L111.779 202.796L107.866 191.574H111.047L113.306 199.585H113.42L115.699 191.574H118.902L114.662 203.662C114.459 204.249 114.182 204.76 113.831 205.196C113.486 205.636 113.048 205.975 112.518 206.212C111.987 206.453 111.348 206.574 110.6 206.574Z" fill="white"/>
</g>
<defs>
<clipPath id="clip0_37_13">
<rect width="167.487" height="207.483" fill="white"/>
</clipPath>
</defs>
</svg>
