<svg width="168" height="208" viewBox="0 0 168 208" fill="none" xmlns="http://www.w3.org/2000/svg">
<g clip-path="url(#clip0_45_15)">
<path d="M132.704 24.4849H34.7855C15.574 24.4849 0 40.0589 0 59.2705V108.22C0 127.431 15.574 143.005 34.7855 143.005H132.704C151.916 143.005 167.49 127.431 167.49 108.22V59.2705C167.49 40.0589 151.916 24.4849 132.704 24.4849ZM109.179 86.1266L63.3794 107.97C62.159 108.552 60.7493 107.663 60.7493 106.311V61.2578C60.7493 59.8866 62.1961 58.998 63.419 59.6178L109.219 82.8269C110.581 83.5168 110.557 85.4697 109.179 86.1266Z" fill="white"/>
<path d="M43.3602 187.945H46.8048L50.1215 194.209H50.2636L53.5803 187.945H57.0249L51.7195 197.348V202.49H48.6656V197.348L43.3602 187.945ZM61.2916 202.703C60.1884 202.703 59.2343 202.469 58.4294 202C57.6292 201.526 57.0113 200.868 56.5757 200.026C56.1401 199.178 55.9223 198.195 55.9223 197.078C55.9223 195.951 56.1401 194.966 56.5757 194.124C57.0113 193.276 57.6292 192.618 58.4294 192.149C59.2343 191.676 60.1884 191.439 61.2916 191.439C62.3949 191.439 63.3466 191.676 64.1468 192.149C64.9517 192.618 65.5719 193.276 66.0075 194.124C66.4432 194.966 66.661 195.951 66.661 197.078C66.661 198.195 66.4432 199.178 66.0075 200.026C65.5719 200.868 64.9517 201.526 64.1468 202C63.3466 202.469 62.3949 202.703 61.2916 202.703ZM61.3058 200.359C61.8077 200.359 62.2268 200.217 62.5629 199.933C62.8991 199.644 63.1524 199.251 63.3229 198.754C63.4981 198.257 63.5857 197.691 63.5857 197.057C63.5857 196.422 63.4981 195.856 63.3229 195.359C63.1524 194.862 62.8991 194.469 62.5629 194.18C62.2268 193.892 61.8077 193.747 61.3058 193.747C60.7992 193.747 60.3731 193.892 60.0274 194.18C59.6865 194.469 59.4285 194.862 59.2533 195.359C59.0828 195.856 58.9976 196.422 58.9976 197.057C58.9976 197.691 59.0828 198.257 59.2533 198.754C59.4285 199.251 59.6865 199.644 60.0274 199.933C60.3731 200.217 60.7992 200.359 61.3058 200.359ZM75.624 197.845V191.581H78.6496V202.49H75.7448V200.508H75.6311C75.3849 201.148 74.9753 201.661 74.4024 202.05C73.8343 202.438 73.1406 202.632 72.3215 202.632C71.5923 202.632 70.9507 202.466 70.3968 202.135C69.8428 201.803 69.4095 201.332 69.097 200.722C68.7893 200.111 68.633 199.379 68.6283 198.527V191.581H71.6539V197.987C71.6586 198.631 71.8314 199.14 72.1723 199.514C72.5132 199.888 72.9701 200.075 73.5431 200.075C73.9076 200.075 74.2486 199.992 74.5658 199.827C74.883 199.656 75.1387 199.405 75.3328 199.074C75.5317 198.742 75.6288 198.333 75.624 197.845ZM86.8722 191.581V193.854H80.3026V191.581H86.8722ZM81.7941 188.967H84.8197V199.138C84.8197 199.417 84.8623 199.635 84.9475 199.791C85.0328 199.943 85.1511 200.049 85.3026 200.111C85.4589 200.172 85.6388 200.203 85.8424 200.203C85.9845 200.203 86.1265 200.191 86.2686 200.168C86.4106 200.139 86.5195 200.118 86.5953 200.104L87.0711 202.355C86.9196 202.402 86.7065 202.457 86.4319 202.518C86.1573 202.585 85.8235 202.625 85.4305 202.639C84.7013 202.668 84.0621 202.57 83.5129 202.348C82.9684 202.125 82.5446 201.78 82.2416 201.311C81.9385 200.842 81.7894 200.25 81.7941 199.535V188.967ZM95.8389 197.845V191.581H98.8644V202.49H95.9596V200.508H95.846C95.5998 201.148 95.1902 201.661 94.6173 202.05C94.0491 202.438 93.3554 202.632 92.5363 202.632C91.8071 202.632 91.1656 202.466 90.6116 202.135C90.0576 201.803 89.6244 201.332 89.3119 200.722C89.0041 200.111 88.8479 199.379 88.8431 198.527V191.581H91.8687V197.987C91.8734 198.631 92.0463 199.14 92.3872 199.514C92.7281 199.888 93.185 200.075 93.7579 200.075C94.1225 200.075 94.4634 199.992 94.7806 199.827C95.0979 199.656 95.3535 199.405 95.5477 199.074C95.7465 198.742 95.8436 198.333 95.8389 197.845ZM101.341 202.49V187.945H104.367V193.413H104.459C104.592 193.12 104.784 192.821 105.035 192.518C105.29 192.211 105.622 191.955 106.029 191.751C106.441 191.543 106.952 191.439 107.563 191.439C108.358 191.439 109.092 191.647 109.765 192.064C110.437 192.476 110.974 193.098 111.377 193.932C111.779 194.76 111.981 195.8 111.981 197.05C111.981 198.267 111.784 199.294 111.391 200.132C111.003 200.965 110.473 201.597 109.8 202.028C109.133 202.454 108.384 202.668 107.556 202.668C106.969 202.668 106.469 202.57 106.057 202.376C105.65 202.182 105.316 201.938 105.056 201.645C104.795 201.347 104.597 201.046 104.459 200.743H104.324V202.49H101.341ZM104.303 197.035C104.303 197.684 104.393 198.25 104.573 198.733C104.753 199.216 105.013 199.592 105.354 199.862C105.695 200.127 106.109 200.26 106.597 200.26C107.089 200.26 107.506 200.125 107.847 199.855C108.188 199.58 108.446 199.202 108.621 198.719C108.801 198.231 108.891 197.67 108.891 197.035C108.891 196.406 108.803 195.852 108.628 195.374C108.453 194.895 108.195 194.521 107.854 194.251C107.513 193.981 107.094 193.847 106.597 193.847C106.105 193.847 105.688 193.977 105.347 194.237C105.011 194.498 104.753 194.867 104.573 195.345C104.393 195.823 104.303 196.387 104.303 197.035ZM118.971 202.703C117.849 202.703 116.883 202.476 116.073 202.021C115.268 201.562 114.648 200.913 114.212 200.075C113.777 199.232 113.559 198.236 113.559 197.085C113.559 195.963 113.777 194.978 114.212 194.131C114.648 193.283 115.261 192.623 116.052 192.149C116.847 191.676 117.78 191.439 118.85 191.439C119.57 191.439 120.24 191.555 120.86 191.787C121.485 192.014 122.03 192.357 122.494 192.817C122.962 193.276 123.327 193.854 123.587 194.55C123.848 195.241 123.978 196.051 123.978 196.979V197.81H114.766V195.935H121.13C121.13 195.499 121.035 195.113 120.846 194.777C120.657 194.441 120.394 194.178 120.058 193.989C119.726 193.794 119.34 193.697 118.9 193.697C118.441 193.697 118.033 193.804 117.678 194.017C117.328 194.225 117.053 194.507 116.854 194.862C116.656 195.213 116.554 195.603 116.549 196.034V197.817C116.549 198.356 116.649 198.823 116.847 199.216C117.051 199.609 117.337 199.912 117.707 200.125C118.076 200.338 118.514 200.445 119.021 200.445C119.357 200.445 119.665 200.397 119.944 200.302C120.223 200.208 120.462 200.066 120.661 199.876C120.86 199.687 121.012 199.455 121.116 199.18L123.914 199.365C123.772 200.037 123.481 200.624 123.041 201.126C122.605 201.624 122.042 202.012 121.35 202.291C120.664 202.566 119.871 202.703 118.971 202.703Z" fill="white"/>
</g>
<defs>
<clipPath id="clip0_45_15">
<rect width="167.49" height="207.49" fill="white"/>
</clipPath>
</defs>
</svg>
