<svg width="40" height="22" viewBox="0 0 40 22" fill="none" xmlns="http://www.w3.org/2000/svg">
<g clip-path="url(#clip0_62_56)">
<path d="M25.6979 11.6528C25.7272 14.8123 28.4696 15.8637 28.5 15.8772C28.4768 15.9513 28.0618 17.3755 27.0552 18.8466C26.185 20.1185 25.2818 21.3857 23.8591 21.4119C22.4612 21.4377 22.0116 20.5829 20.4134 20.5829C18.8156 20.5829 18.3161 21.3857 16.9928 21.4377C15.6195 21.4896 14.5738 20.0623 13.6963 18.7951C11.9034 16.2031 10.5333 11.4705 12.3731 8.27602C13.287 6.6896 14.9203 5.68502 16.6931 5.65926C18.0417 5.63354 19.3145 6.56651 20.1389 6.56651C20.9628 6.56651 22.5095 5.44453 24.1356 5.6093C24.8164 5.63764 26.7272 5.88428 27.9542 7.68028C27.8553 7.74157 25.6742 9.01133 25.6979 11.6528ZM23.0706 3.89442C23.7997 3.01189 24.2904 1.78333 24.1565 0.560913C23.1056 0.603151 21.8348 1.26122 21.081 2.14326C20.4054 2.92436 19.8138 4.17454 19.9734 5.37276C21.1448 5.46339 22.3414 4.77751 23.0706 3.89442Z" fill="white"/>
</g>
<defs>
<clipPath id="clip0_62_56">
<rect width="40" height="20.8781" fill="white" transform="translate(0 0.560913)"/>
</clipPath>
</defs>
</svg>
