<svg width="40" height="12" viewBox="0 0 40 12" fill="none" xmlns="http://www.w3.org/2000/svg">
<path d="M9.15932 10.7118C9.20884 10.7118 9.25076 10.671 9.25788 10.6137L9.52708 8.47999L9.25868 6.29774C9.25068 6.24038 9.20884 6.19934 9.15932 6.19934C9.10852 6.19934 9.06524 6.24126 9.05852 6.29774L8.82324 8.47999L9.05852 10.613C9.06524 10.6702 9.10852 10.7118 9.15932 10.7118Z" fill="white"/>
<path d="M8.27176 9.90024C8.3204 9.90024 8.35984 9.8624 8.36696 9.80584L8.5756 8.47991L8.36696 7.12919C8.35976 7.07439 8.3204 7.03479 8.27176 7.03479C8.22096 7.03479 8.1816 7.07439 8.1744 7.12999L8 8.47999L8.1744 9.80552C8.1816 9.8616 8.22096 9.90024 8.27176 9.90024Z" fill="white"/>
<path d="M10.2207 5.89161C10.2143 5.82225 10.1635 5.77161 10.1005 5.77161C10.0379 5.77161 9.98707 5.82225 9.98123 5.89161L9.75635 8.48001L9.98123 10.9739C9.98707 11.0429 10.0379 11.0929 10.1005 11.0929C10.1635 11.0929 10.2143 11.0429 10.2207 10.9739L10.4751 8.48001L10.2207 5.89161Z" fill="white"/>
<path d="M11.0522 11.1933C11.1259 11.1933 11.1856 11.1326 11.1928 11.0532L11.4332 8.48075L11.1928 5.8201C11.1856 5.74018 11.1259 5.68018 11.0522 5.68018C10.9774 5.68018 10.9168 5.74026 10.9117 5.8205L10.6992 8.48075L10.9117 11.0532C10.9168 11.1327 10.9774 11.1933 11.0522 11.1933Z" fill="white"/>
<path d="M12.0101 11.2351C12.096 11.2351 12.165 11.1663 12.1721 11.0742L12.1713 11.0749L12.3977 8.48078L12.1713 6.01221C12.1649 5.92165 12.096 5.85181 12.01 5.85181C11.9228 5.85181 11.8543 5.92165 11.8491 6.01293L11.6489 8.48085L11.8491 11.0743C11.8544 11.1663 11.9229 11.2351 12.0101 11.2351Z" fill="white"/>
<path d="M13.3704 8.48144L13.158 4.46767C13.152 4.36591 13.0728 4.28479 12.9755 4.28479C12.8789 4.28479 12.7999 4.36583 12.794 4.46767L12.606 8.48144L12.794 11.0749C12.7999 11.1771 12.879 11.2571 12.9755 11.2571C13.0728 11.2571 13.152 11.1771 13.158 11.0749V11.0756L13.3704 8.48144Z" fill="white"/>
<path d="M13.9507 11.2613C14.0578 11.2613 14.1467 11.1724 14.1517 11.059V11.0606L14.3503 8.48199L14.1517 3.54949C14.1467 3.43605 14.0578 3.34717 13.9507 3.34717C13.8411 3.34717 13.753 3.43605 13.7471 3.54949L13.5723 8.48199L13.7479 11.0598C13.753 11.1724 13.8411 11.2613 13.9507 11.2613Z" fill="white"/>
<path d="M14.9315 2.91479C14.8109 2.91479 14.7135 3.01384 14.7085 3.13872L14.5459 8.48281L14.7085 11.0335C14.7136 11.1578 14.8109 11.2562 14.9315 11.2562C15.0518 11.2562 15.1499 11.1586 15.1541 11.0331V11.0344L15.3387 8.48281L15.1541 3.13872C15.1499 3.01304 15.0517 2.91479 14.9315 2.91479Z" fill="white"/>
<path d="M15.9207 11.2614C16.0531 11.2614 16.1587 11.1545 16.1636 11.0169V11.0184L16.3343 8.48294L16.1636 2.95932C16.1586 2.8222 16.0531 2.71484 15.9207 2.71484C15.7874 2.71484 15.6803 2.8222 15.6782 2.95932L15.5249 8.48294L15.6782 11.0184C15.6803 11.1545 15.7874 11.2614 15.9207 11.2614Z" fill="white"/>
<path d="M16.9184 11.2588C17.0613 11.2588 17.1773 11.1418 17.1816 10.9934V10.9957L17.3387 8.48335L17.1816 3.10021C17.1773 2.95189 17.0613 2.83533 16.9184 2.83533C16.7744 2.83533 16.6584 2.95181 16.6541 3.10021L16.5161 8.48335L16.655 10.9945C16.6584 11.1418 16.7744 11.2588 16.9184 11.2588Z" fill="white"/>
<path d="M18.3489 8.48332L18.2067 3.29642C18.2033 3.13642 18.078 3.01074 17.9227 3.01074C17.7669 3.01074 17.6415 3.13642 17.6383 3.29746L17.5107 8.48332L17.6383 10.9792C17.6415 11.1379 17.7668 11.2636 17.9227 11.2636C18.0779 11.2636 18.2033 11.1379 18.2067 10.9768V10.9792L18.3489 8.48332Z" fill="white"/>
<path d="M18.9346 11.2682C19.0997 11.2682 19.2364 11.1309 19.239 10.962V10.9634L19.368 8.48464L19.239 2.31238C19.2365 2.14286 19.0998 2.00574 18.9346 2.00574C18.7695 2.00574 18.6332 2.1435 18.6299 2.31326L18.5151 8.48216L18.6299 10.9634C18.6332 11.1309 18.7695 11.2682 18.9346 11.2682Z" fill="white"/>
<path d="M19.9432 1.42517C19.7648 1.42517 19.6202 1.57309 19.6172 1.75341L19.4839 8.48551L19.618 10.9276C19.6202 11.1056 19.7649 11.253 19.9432 11.253C20.1188 11.253 20.2661 11.1055 20.2669 10.9246V10.9276L20.4125 8.48551L20.2669 1.75341C20.2661 1.57245 20.1188 1.42517 19.9432 1.42517Z" fill="white"/>
<path d="M20.8657 11.2706C20.8729 11.2713 28.9955 11.2751 29.0477 11.2751C30.6785 11.2751 32 9.93733 32 8.28652C32 6.63659 30.6784 5.29859 29.0477 5.29859C28.643 5.29859 28.2574 5.38131 27.9057 5.53115C27.6719 2.83746 25.4405 0.724976 22.7183 0.724976C22.0529 0.724976 21.404 0.857936 20.8309 1.0825C20.6078 1.1697 20.5481 1.25962 20.5464 1.43386V10.917C20.5489 11.1002 20.6886 11.2525 20.8657 11.2706Z" fill="white"/>
</svg>
