<svg width="40" height="20" viewBox="0 0 40 20" fill="none" xmlns="http://www.w3.org/2000/svg">
<path d="M19.9999 0C14.4772 0 10 4.47723 10 10.0001C10 15.5231 14.4772 20 19.9999 20C25.5232 20 30 15.5231 30 10.0001C30 4.47759 25.5232 0.000477658 19.9998 0.000477658L19.9999 0ZM24.5858 14.423C24.4067 14.7167 24.0222 14.8099 23.7285 14.6295C21.3806 13.1954 18.4249 12.8706 14.944 13.6659C14.6086 13.7423 14.2742 13.5321 14.1978 13.1966C14.121 12.861 14.3304 12.5266 14.6666 12.4502C18.4759 11.5796 21.7434 11.9546 24.3793 13.5656C24.673 13.7459 24.7662 14.1292 24.5858 14.423ZM25.8098 11.6997C25.5841 12.0669 25.1041 12.1827 24.7375 11.957C22.0495 10.3044 17.9521 9.82595 14.7728 10.7911C14.3605 10.9156 13.925 10.6832 13.7998 10.2716C13.6756 9.85927 13.9081 9.4246 14.3197 9.29921C17.9514 8.19725 22.4663 8.73104 25.5531 10.6279C25.9197 10.8536 26.0355 11.3336 25.8098 11.6997ZM25.9149 8.8643C22.692 6.94996 17.3745 6.77394 14.2974 7.70789C13.8033 7.85775 13.2807 7.5788 13.131 7.08466C12.9812 6.59028 13.26 6.06808 13.7544 5.91785C17.2868 4.84551 23.1589 5.05269 26.8695 7.25554C27.3149 7.51933 27.4606 8.09336 27.1967 8.53722C26.934 8.98169 26.3584 9.12821 25.9154 8.8643H25.9149Z" fill="white"/>
</svg>
